<svg height="512pt"viewBox="-66 0 512 512"width="512pt"xmlns="http://www.w3.org/2000/svg"><path d="m328.078125 49.929688c-32.535156-31.9375-75.738281-49.667969-121.644531-49.92578175l-1.011719-.00390625c-106.847656 0-189.347656 95.566406-172.757813 201.984375-30.253906 91.433594-32.664062 90.984375-32.664062 103.46875 0 24.574219 20.097656 43.179687 40.933594 43.179687l12.886718.023438v20.703125c0 4.199219 3.402344 7.605469 7.605469 7.605469 4.199219 0 7.605469-3.40625 7.605469-7.605469v-28.292969c0-4.195312-3.398438-7.597656-7.59375-7.605468l-20.296875-.035157c-18.359375-.941406-30.332031-19.667969-24.414063-37.105469 32.15625-95.789062 31.820313-91.503906 31.246094-94.941406-1.464844-8.746094-2.207031-17.671875-2.207031-26.519531 0-88.03125 71.621094-159.652344 159.65625-159.652344l.921875.003907c127.960938.722656 200.996094 141.878906 132.519531 249.261718-12.238281 19.191406-18.707031 41.652344-18.707031 64.953125v164.523438c0 1.566406-1.277344 2.84375-2.84375 2.84375h-154.96875c-1.566406 0-2.84375-1.277344-2.84375-2.84375v-18.839844c0-24.867187-22.316406-44.265625-47.339844-40.070313l-17.46875 2.925782c-14.203125-.316406-25.664062-11.972656-25.664062-26.25v-11.9375c0-4.199219-3.402344-7.605469-7.601563-7.605469-4.203125 0-7.605469 3.40625-7.605469 7.605469v11.9375c0 22.863281 18.601563 41.464844 41.464844 41.464844 2.660156 0 18.972656-3.5 23.65625-3.5 13.976563 0 25.351563 11.40625 25.351563 25.429687v18.839844c0 9.953125 8.097656 18.050781 18.050781 18.050781h154.96875c9.953125 0 18.050781-8.097656 18.050781-18.050781v-164.519531c0-20.398438 5.644531-40.035157 16.324219-56.777344 43.953125-68.9375 38.066406-162.183594-23.609375-222.722656zm0 0"/><path d="m82.128906 212.414062c-16.492187 35.308594 16.640625 74.015626 54.191406 62.832032 15.804688 25.335937 52.433594 26.429687 69.734376 1.792968 4.78125 6.8125 11.558593 12.179688 19.589843 15.1875-2.570312 16.9375-7.53125 30.910157-14.46875 40.679688-5.59375 7.867188 2.289063 18.296875 11.402344 15.109375 20.605469-7.214844 68.773437-28.554687 81.457031-73.535156 25.332032-8.980469 37.25-37.902344 25.960938-62.066407 35.652344-28.125 29.4375-84.277343-11.65625-103.902343 7.859375-30.703125-17.636719-60.460938-49.890625-56.394531-18.632813-16.933594-47.808594-13.804688-62.386719 6.964843-14.578125-20.769531-43.757812-23.898437-62.390625-6.964843-32.179687-4.058594-57.773437 25.585937-49.886719 56.394531-41.160156 19.65625-47.265625 75.808593-11.65625 103.902343zm131.554688-15.976562c18.824218-2.113281 33.507812-18.117188 33.507812-37.496094 0-4.199218-3.40625-7.605468-7.605468-7.605468-4.199219 0-7.605469 3.40625-7.605469 7.605468 0 10.976563-7.890625 20.136719-18.296875 22.128906v-98c0-18.914062 19.289062-31.878906 36.773437-24.621093-6.0625 3.726562-11.265625 8.886719-15.125 15.257812-2.175781 3.589844-1.023437 8.265625 2.566407 10.441407 3.589843 2.175781 8.269531 1.023437 10.445312-2.566407 19.066406-31.496093 69.125-7.351562 53.632812 27.828125-4.695312 10.648438-15.347656 18.101563-27.710937 18.101563-4.199219 0-7.605469 3.402343-7.605469 7.601562s3.40625 7.605469 7.605469 7.605469c15.777344 0 29.695313-8.074219 37.859375-20.304688 30.289062 14.78125 35.140625 56.089844 9.164062 77.464844-8.265624-8.464844-19.792968-13.734375-32.53125-13.734375-4.199218 0-7.601562 3.402344-7.601562 7.605469 0 4.199219 3.402344 7.601562 7.601562 7.601562 21.578126 0 36.28125 22.023438 27.894532 42.054688-4.660156 10.996094-15.546875 18.5-27.894532 18.5-9.082031 0-10.449218 13.105469-1.625 15.03125-10.597656 26.4375-36.75 42.582031-55.859374 51.222656 5.097656-11.273437 8.558593-24.867187 10.324218-40.609375.445313-3.957031-2.242187-7.585937-6.152344-8.320312-12.609374-2.367188-21.761718-13.382813-21.761718-26.191407zm-113.683594-74.023438c8.160156 12.230469 22.082031 20.304688 37.859375 20.304688 4.199219 0 7.601563-3.40625 7.601563-7.605469s-3.402344-7.601562-7.601563-7.601562c-12.515625 0-23.519531-7.6875-28.082031-18.972657-8.949219-22.144531 10.34375-46.164062 34.84375-40.816406 7.921875 1.789063 14.816406 6.683594 19.160156 13.859375 2.175781 3.59375 6.851562 4.738281 10.441406 2.566407 3.59375-2.175782 4.746094-6.851563 2.570313-10.441407-3.855469-6.371093-9.0625-11.53125-15.125-15.257812 17.476562-7.253907 36.769531 5.691406 36.769531 24.621093v59.984376c-10.402344-1.988282-18.292969-11.152344-18.292969-22.128907 0-4.199219-3.40625-7.601562-7.605469-7.601562-4.199218 0-7.605468 3.402343-7.605468 7.601562 0 19.378907 14.683594 35.386719 33.503906 37.5v56.464844c-5.464844-3.679687-12.039062-5.828125-19.105469-5.828125h-27.09375c-4.199219 0-7.601562 3.40625-7.601562 7.605469s3.402343 7.605469 7.601562 7.605469h27.09375c10.535157 0 19.105469 8.570312 19.105469 19.105468v9.664063c0 14.695312-11.953125 26.652343-26.652344 26.652343-10.773437 0-20.722656-6.765624-24.753906-16.839843-1.648438-4.109375-6.441406-5.9375-10.398438-4.003907-24.5625 12-51.304687-12.4375-41.558593-37.988281 4.398437-11.511719 15.484375-19.511719 28.289062-19.511719 4.199219 0 7.605469-3.402343 7.605469-7.601562s-3.40625-7.605469-7.605469-7.605469c-12.738281 0-24.261719 5.269531-32.527343 13.734375-10.648438-8.761718-16.855469-21.71875-16.855469-35.777344 0-17.929687 10.238281-33.988281 26.019531-41.6875zm0 0"/></svg>