<svg id="root"  viewBox="-66 0 512 512.00101"  xmlns="http://www.w3.org/2000/svg"><path d="m206.433594.00390625-1.011719-.00390625c-106.960937 0-189.316406 95.671875-172.757813 201.984375-30.253906 91.433594-32.664062 90.984375-32.664062 103.46875 0 24.578125 20.097656 43.179687 40.9375 43.179687l12.882812.023438v20.703125c0 4.199219 3.40625 7.605469 7.605469 7.605469s7.605469-3.40625 7.605469-7.605469v-28.292969c0-4.195312-3.398438-7.59375-7.589844-7.605468l-20.300781-.035157c-18.285156-.933593-30.351563-19.59375-24.414063-37.105469 32.140626-95.746093 31.820313-91.496093 31.246094-94.9375-1.464844-8.753906-2.203125-17.675781-2.203125-26.519531 0-88.035156 71.617188-159.65625 159.652344-159.65625l.921875.003907c103.34375.585937 183.15625 97.488281 151.320312 207.851562-4.269531 14.609375-10.59375 28.542969-18.800781 41.414062-12.238281 19.191407-18.707031 41.652344-18.707031 64.953126v164.519531c0 1.570312-1.277344 2.84375-2.84375 2.84375h-154.96875c-1.566406 0-2.84375-1.273438-2.84375-2.84375v-18.839844c0-24.867187-22.316406-44.261719-47.339844-40.070313l-17.46875 2.925782c-14.207031-.316406-25.664062-11.96875-25.664062-26.25v-11.9375c0-4.199219-3.40625-7.605469-7.605469-7.605469s-7.601563 3.40625-7.601563 7.605469v11.9375c0 22.867187 18.601563 41.464844 41.464844 41.464844 2.664063 0 18.957032-3.5 23.65625-3.5 13.976563 0 25.351563 11.410156 25.351563 25.429687v18.839844c0 9.953125 8.097656 18.050781 18.050781 18.050781h154.96875c9.953125 0 18.050781-8.097656 18.050781-18.050781v-164.523438c0-20.398437 5.644531-40.027343 16.320313-56.773437 75.765625-118.8125-6.703125-271.863282-145.25-272.64843775zm0 0"/><path d="m104.402344 128.109375c-3.460938-.609375-6.949219.164063-9.832032 2.179687-2.878906 2.015626-4.800781 5.03125-5.410156 8.492188l-4.453125 25.269531c-1.257812 7.144531 3.527344 13.980469 10.671875 15.242188l25.445313 4.484375c.28125 2.027344.632812 4.042968 1.058593 6.039062l-22.371093 12.917969c-6.285157 3.625-8.445313 11.6875-4.816407 17.972656l12.828126 22.21875c3.628906 6.28125 11.6875 8.445313 17.972656 4.816407l22.382812-12.921876c1.515625 1.371094 3.082032 2.683594 4.691406 3.9375l-8.839843 24.285157c-2.480469 6.816406 1.046875 14.382812 7.863281 16.863281l24.109375 8.773438c3.300781 1.207031 6.875 1.050781 10.0625-.4375 3.183594-1.484376 5.601563-4.121094 6.800781-7.425782l8.839844-24.28125c2.050781.074219 4.078125.074219 6.125 0l8.839844 24.28125c1.957031 5.378906 7.03125 8.667969 12.355468 8.667969 3.992188 0 4.453126-1.039063 28.617188-9.578125 6.816406-2.480469 10.34375-10.046875 7.863281-16.863281l-8.835937-24.285157c1.609375-1.253906 3.171875-2.566406 4.6875-3.9375l22.382812 12.921876c6.285156 3.628906 14.347656 1.46875 17.972656-4.816407l12.828126-22.21875c3.628906-6.28125 1.46875-14.34375-4.816407-17.972656l-22.371093-12.917969c.425781-1.996094.777343-4.011718 1.058593-6.039062l25.445313-4.484375c7.144531-1.261719 11.933594-8.097657 10.675781-15.242188 0 0 0 0 0-.003906l-4.457031-25.261719c-1.261719-7.160156-8.082032-11.941406-15.242188-10.675781l-25.441406 4.488281c-.957031-1.804687-1.984375-3.574218-3.070312-5.308594l16.609374-19.792968c4.675782-5.566406 3.949219-13.863282-1.621093-18.535156l-19.652344-16.492188c-2.695313-2.261719-6.105469-3.335938-9.605469-3.027344-3.503906.304688-6.675781 1.957032-8.933594 4.648438l-16.601562 19.785156c-1.894531-.769531-3.820312-1.46875-5.765625-2.097656v-25.828125c0-7.253907-5.902344-13.160157-13.15625-13.160157h-25.65625c-7.253906 0-13.15625 5.902344-13.15625 13.160157v25.828125c-1.945313.628906-3.871094 1.328125-5.765625 2.097656l-16.601562-19.785156c-4.675782-5.570313-12.964844-6.296875-18.535157-1.621094l-19.65625 16.492188c-5.570312 4.671874-6.296875 12.964843-1.621093 18.535156l16.609374 19.792968c-1.085937 1.730469-2.113281 3.503907-3.070312 5.304688zm36.71875 16.046875c2.003906-4.523438 4.507812-8.851562 7.445312-12.863281 2.066406-2.824219 1.9375-6.695313-.3125-9.378907l-18.980468-22.621093 16.511718-13.855469 18.972656 22.613281c2.25 2.679688 6.039063 3.476563 9.183594 1.933594 4.449219-2.191406 9.144532-3.898437 13.960938-5.082031 3.398437-.832032 5.789062-3.882813 5.789062-7.382813v-29.519531h21.554688v29.515625c0 3.503906 2.390625 6.550781 5.792968 7.386719 4.8125 1.179687 9.511719 2.890625 13.960938 5.082031 3.140625 1.542969 6.929688.746094 9.183594-1.9375l18.972656-22.609375 16.511719 13.851562-18.980469 22.621094c-2.253906 2.683594-2.382812 6.558594-.3125 9.382813 2.9375 4.007812 5.4375 8.339843 7.441406 12.863281 1.414063 3.199219 4.832032 5.019531 8.273438 4.414062l29.066406-5.125 3.746094 21.226563-29.085938 5.128906c-3.449218.609375-6.035156 3.492188-6.265625 6.988281-.332031 4.96875-1.191406 9.894532-2.566406 14.636719-.972656 3.359375.472656 6.949219 3.503906 8.699219l25.558594 14.753906-10.777344 18.667969-25.574219-14.765625c-3.03125-1.75-6.863281-1.203125-9.289062 1.320312-3.441406 3.582032-7.269531 6.796876-11.382812 9.5625-2.902344 1.949219-4.101563 5.628907-2.90625 8.914063l10.097656 27.742187-20.253906 7.371094-10.101563-27.746094c-1.101563-3.027343-3.976563-5.003906-7.140625-5.003906-.269531 0-.539062.015625-.8125.042969-4.957031.53125-9.917969.53125-14.878906 0-3.488282-.371094-6.757813 1.675781-7.953125 4.960937l-10.097657 27.746094-20.253906-7.371094 10.097656-27.742187c1.195313-3.285156-.003906-6.964844-2.90625-8.914063-4.113281-2.765624-7.941406-5.980468-11.386718-9.5625-2.421875-2.523437-6.253906-3.070312-9.285156-1.320312l-25.578126 14.765625-10.773437-18.667969 25.558594-14.753906c3.027343-1.75 4.472656-5.339844 3.503906-8.699219-1.375-4.742187-2.238281-9.667969-2.566406-14.636719-.230469-3.496093-2.816407-6.378906-6.265625-6.988281l-29.085938-5.128906 3.742188-21.226563 29.066406 5.125c3.445312.605469 6.863281-1.214843 8.277344-4.414062zm0 0"/><path d="m204.46875 232.691406c33.945312 0 61.558594-27.613281 61.558594-61.558594 0-33.941406-27.613282-61.554687-61.558594-61.554687-33.941406 0-61.554688 27.613281-61.554688 61.554687 0 33.945313 27.613282 61.558594 61.554688 61.558594zm0-107.90625c25.558594 0 46.347656 20.792969 46.347656 46.347656 0 25.558594-20.789062 46.347657-46.347656 46.347657-25.554688 0-46.347656-20.789063-46.347656-46.347657 0-25.554687 20.792968-46.347656 46.347656-46.347656zm0 0"/><path d="m228.003906 194.667969c20.988282-20.988281 5.890625-56.816407-23.53125-56.816407-18.359375 0-33.273437 14.832032-33.273437 33.28125 0 29.804688 36.054687 44.28125 56.804687 23.535157zm-10.753906-36.3125c3.40625 3.402343 5.28125 7.945312 5.28125 12.777343 0 15.96875-19.410156 24.210938-30.84375 12.78125-3.40625-3.40625-5.28125-7.945312-5.28125-12.78125 0-16.1875 19.578125-24.042968 30.84375-12.777343zm0 0"/></svg>